<?xml version="1.0" encoding="UTF-8"?>
<!DOCTYPE svg PUBLIC "-//W3C//DTD SVG 1.1//EN" "http://www.w3.org/Graphics/SVG/1.1/DTD/svg11.dtd">
<!-- Creator: CorelDRAW 2020 (64 Bit) -->
<svg xmlns="http://www.w3.org/2000/svg" xml:space="preserve" width="144px" height="144px" version="1.1" style="shape-rendering:geometricPrecision; text-rendering:geometricPrecision; image-rendering:optimizeQuality; fill-rule:evenodd; clip-rule:evenodd"
viewBox="0 0 144 144"
 xmlns:xlink="http://www.w3.org/1999/xlink"
 xmlns:xodm="http://www.corel.com/coreldraw/odm/2003"
 aria-hidden="true"
 focusable="false"
 data-prefix="fas"
 data-icon="funnel-dollar"
 role="img">
 <defs>
  <style type="text/css">
   <![CDATA[
    .fil0 {fill:#9B75D8;fill-rule:nonzero}
    .fil2 {fill:#9B75D8;fill-rule:nonzero}
    .fil1 {fill:white;fill-rule:nonzero}
   ]]>
  </style>
 </defs>
 <g id="Camada_x0020_1">
  <metadata id="CorelCorpID_0Corel-Layer"/>
  <path class="fil0" d="M111.601 111.573l0 3.627c0,0.995 -0.805,1.8 -1.8,1.8l-3.6 0c-0.994,0 -1.8,-0.805 -1.8,-1.8l0 -3.665c-2.54,-0.131 -5.011,-1.017 -7.058,-2.554 -0.878,-0.659 -0.923,-1.973 -0.128,-2.731l2.643 -2.523c0.624,-0.593 1.551,-0.621 2.28,-0.164 0.871,0.545 1.858,0.838 2.884,0.838l6.325 0c1.463,0 2.655,-1.332 2.655,-2.969 0,-1.337 -0.811,-2.517 -1.972,-2.864l-10.125 -3.037c-4.184,-1.255 -7.106,-5.27 -7.106,-9.762 0,-5.517 4.287,-10 9.601,-10.141l0 -3.627c0,-0.994 0.805,-1.8 1.8,-1.8l3.6 0c0.995,0 1.8,0.806 1.8,1.8l0 3.665c2.54,0.131 5.011,1.015 7.058,2.554 0.878,0.659 0.923,1.973 0.129,2.731l-2.644 2.523c-0.624,0.594 -1.55,0.621 -2.279,0.164 -0.871,-0.547 -1.859,-0.838 -2.885,-0.838l-6.325 0c-1.462,0 -2.655,1.332 -2.655,2.969 0,1.337 0.811,2.517 1.974,2.864l10.125 3.038c4.182,1.255 7.105,5.269 7.105,9.762 0,5.52 -4.284,10 -9.601,10.141l0 0 -0.001 -0.001z"/>
  <path class="fil1" d="M108.001 57.6c-19.883,0 -36,16.117 -36,36 0,19.884 16.117,36 36,36 19.885,0 36.002,-16.116 36.002,-36 0,-19.883 -16.117,-36 -36.002,-36z"/>
  <path class="fil0" d="M97.53 51.736l22.77 -25.171c4.489,-4.488 1.309,-12.165 -5.04,-12.165l-108.118 0c-6.349,0 -9.529,7.677 -5.04,12.165l41.099 45.435 0 35.082c0,2.833 1.334,5.499 3.6,7.2l17.998 13.5c4.693,3.519 10.906,1.569 13.324,-3.053 -8.192,-7.868 -13.322,-18.9 -13.322,-31.129 0,-20.203 13.961,-37.163 32.729,-41.864z"/>
  <path class="fil2" d="M111.601 111.573l0 3.627c0,0.995 -0.805,1.8 -1.8,1.8l-3.6 0c-0.994,0 -1.8,-0.805 -1.8,-1.8l0 -3.665c-2.54,-0.131 -5.011,-1.017 -7.058,-2.554 -0.878,-0.659 -0.923,-1.973 -0.128,-2.731l2.643 -2.523c0.624,-0.593 1.551,-0.621 2.28,-0.164 0.871,0.545 1.858,0.838 2.884,0.838l6.325 0c1.463,0 2.655,-1.332 2.655,-2.969 0,-1.337 -0.811,-2.517 -1.972,-2.864l-10.125 -3.037c-4.184,-1.255 -7.106,-5.27 -7.106,-9.762 0,-5.517 4.287,-10 9.601,-10.141l0 -3.627c0,-0.994 0.805,-1.8 1.8,-1.8l3.6 0c0.995,0 1.8,0.806 1.8,1.8l0 3.665c2.54,0.131 5.011,1.015 7.058,2.554 0.878,0.659 0.923,1.973 0.129,2.731l-2.644 2.523c-0.624,0.594 -1.55,0.621 -2.279,0.164 -0.871,-0.547 -1.859,-0.838 -2.885,-0.838l-6.325 0c-1.462,0 -2.655,1.332 -2.655,2.969 0,1.337 0.811,2.517 1.974,2.864l10.125 3.038c4.182,1.255 7.105,5.269 7.105,9.762 0,5.52 -4.284,10 -9.601,10.141l0 0 -0.001 -0.001z"/>
 </g>
</svg>
